PathFileType	4	(X/Y/Z)	C:/Users/beibeiliu/ov580/test_trc/User1\sequence.29_training_dense_left.trc
DataRate	CameraRate	NumFrames	NumMarkers	Units	OrigDataRate	OrigDataStartFrame	OrigNumFrames
120	120	7	19	mm	120	1	228
Frame#	Time	ThumbCMC			ThumbMCP			ThumbIP			ThumbTip			IndexMCP			IndexPIP			IndexTip			MiddleMCP			MiddlePIP			MiddleTip			RingMCP			RingPIP			RingTip			PinkyMCP			PinkyPIP			PinkyTip			BackHand1			BackHand2			BackHand3	
		X0	Y0	Z0	X1	Y1	Z1	X2	Y2	Z2	X3	Y3	Z3	X4	Y4	Z4	X5	Y5	Z5	X6	Y6	Z6	X7	Y7	Z7	X8	Y8	Z8	X9	Y9	Z9	X10	Y10	Z10	X11	Y11	Z11	X12	Y12	Z12	X13	Y13	Z13	X14	Y14	Z14	X15	Y15	Z15	X16	Y16	Z16	X17	Y17	Z17	X18	Y18	Z18	
0	0	-92.9352	-3.73796	55.6948	-72.3852	-22.405	44.4636	-49.7502	-30.1699	30.0626	-30.2359	-40.1738	18.1218	-109.409	-7.30997	-30.0446	-106.57	-10.1862	-54.4156	-108.188	-9.55477	-84.322	-136.874	-3.68646	-38.3674	-139.864	-2.61367	-65.2421	-145.646	-0.676202	-93.5958	-159.266	-9.39955	-32.4599	-164.238	-6.40088	-53.6108	-170.602	-4.58384	-77.6076	-186.155	-24.99	-9.87345	-194.569	-26.0709	-23.082	-204.58	-17.8511	-45.017	-158.621	1.63008	17.4517	-162.989	12.4417	54.2632	-127.264	13.0769	34.2729	
1	0.00833333	-94.3278	-5.15806	52.9346	-71.4918	-21.9708	42.6678	-54.3946	-31.7795	26.9741	-31.2649	-40.8626	17.6527	-110.237	-7.73186	-31.9788	-108.839	-9.93925	-58.8705	-110.776	-10.4867	-85.5334	-136.576	-3.83867	-41.3496	-138.756	-3.30504	-63.2099	-145.897	-0.963814	-93.9305	-163.845	-9.64037	-30.2043	-163.765	-6.83163	-54.5723	-171.41	-2.57896	-82.6419	-182.523	-24.9109	-7.13296	-198.033	-25.3951	-26.9631	-206.942	-16.9778	-41.7415	-161.127	0.491875	20.8598	-162.057	12.9169	50.9922	-126.386	11.7615	32.2898	
2	0.0166667	-95.0147	-5.45153	54.6896	-74.2762	-22.2569	44.4707	-49.9884	-32.207	25.7979	-35.0578	-40.3399	20.5125	-105.173	-7.86884	-35.602	-108.871	-10.7356	-56.9193	-106.69	-10.8408	-81.752	-138.709	-3.78628	-38.0468	-139.1	-3.47786	-64.7587	-142.451	-1.12185	-92.9225	-158.609	-9.28582	-29.0377	-164.889	-6.53016	-59.2683	-172.168	-3.64504	-82.0884	-184.721	-24.0845	-8.19279	-197.177	-25.9824	-25.0756	-206.084	-18.8724	-43.2734	-161.895	1.10252	19.8244	-161.384	11.3463	50.7206	-128.232	11.6948	34.7827	
3	0.025	-90.9869	-5.55782	49.9265	-73.5441	-23.0974	40.969	-52.0409	-32.1636	26.5385	-34.376	-39.5439	22.5714	-107.806	-8.13459	-35.4949	-104.732	-9.12102	-60.8727	-111.938	-11.8715	-81.533	-136.131	-3.61097	-37.4746	-139.609	-2.89302	-67.4617	-145.278	-1.21733	-94.1355	-158.477	-8.78122	-32.3881	-165.481	-6.4682	-58.4338	-169.003	-4.55293	-78.3574	-179.891	-24.1517	-9.35329	-193.085	-24.1734	-27.2848	-206.074	-16.3067	-42.7846	-159.67	-0.111777	16.4943	-164.93	11.1561	48.7036	-126.349	11.7814	31.2001	
4	0.0333333	-95.8986	-5.95641	52.4401	-71.6273	-23.2283	39.3385	-50.043	-31.2744	28.5932	-31.0276	-38.9156	22.1407	-105.083	-6.58778	-32.7393	-106.271	-8.79107	-56.5279	-107.285	-10.0429	-81.8185	-134.457	-1.84932	-43.8237	-136.976	-2.61593	-70.5685	-142.516	-0.48989	-93.2486	-162.894	-10.3127	-31.8484	-164.37	-5.60014	-60.5667	-171.646	-3.72283	-83.1656	-185.888	-25.3117	-10.2957	-191.523	-25.1631	-27.4773	-206.551	-16.6194	-43.6617	-160.583	1.47799	16.1767	-159.243	12.1039	46.8308	-126.993	10.611	30.6992	
5	0.0416667	-94.6809	-6.73256	48.4567	-72.9997	-22.9848	39.6414	-50.7696	-31.8768	24.1584	-30.0903	-39.1325	20.9285	-104.43	-6.90126	-31.5695	-109.229	-9.92409	-60.7063	-108.124	-10.889	-82.0721	-138.472	-3.8879	-42.5019	-137.781	-2.70476	-67.5657	-146.01	-1.10819	-94.1071	-163.509	-10.5996	-31.8377	-167.45	-6.76038	-59.9558	-172.637	-5.16763	-80.0367	-183.853	-24.5637	-10.9287	-191.013	-26.1023	-25.6869	-206.695	-20.0578	-43.572	-157.504	1.66498	19.7708	-161.763	10.933	48.9241	-123.935	10.899	32.1975	
6	0.05	-92.2703	-5.88752	49.1644	-70.2234	-22.8004	39.8678	-53.5931	-33.1637	27.8582	-33.2489	-40.039	20.1681	-108.525	-7.84622	-36.5006	-105.652	-9.9899	-56.626	-110.503	-11.364	-82.3665	-139.337	-3.98805	-42.8522	-137.271	-3.22864	-65.3367	-144.123	0.520572	-95.751	-158.461	-10.0253	-30.0579	-165.537	-7.21291	-57.2469	-169.348	-2.34331	-83.6774	-185.816	-25.7422	-10.3317	-195.802	-26.6929	-29.3312	-206.873	-19.3762	-44.9225	-156.28	-0.298152	20.4744	-163.323	11.1232	50.5257	-127.418	12.3811	33.0619	
